# xmcd CD database file
#
# Track frame offsets:
#	150
#	17038
#	36465
#	54404
#	76216
#	95776
#	104493
#	118335
#	132846
#	148548
#	167867
#	184688
#	203002
#
# Disc length: 2943 seconds
#
# Revision: 5
# Processed by: cddbd v1.5.2PL0 Copyright (c) Steve Scherf et al.
# Submitted via: CDex 1.70beta2
#
DISCID=b80b7d0d
DTITLE=ウルフルズ - KEEP ON, MOVE ON
DYEAR=2007
DGENRE=Pop
TTITLE0=たしかなこと
TTITLE1=情熱 A Go-Go
TTITLE2=花さかフィーバー
TTITLE3=泣けてくる
TTITLE4=カッコつけて
TTITLE5=あんまり小唄
TTITLE6=キーポン節
TTITLE7=ムーボン音頭
TTITLE8=開けてけ！心のドア
TTITLE9=恋の涙
TTITLE10=胸の…
TTITLE11=両方 For You
TTITLE12=四人
EXTD=YEAR: 2007
EXTT0=
EXTT1=
EXTT2=
EXTT3=
EXTT4=
EXTT5=
EXTT6=
EXTT7=
EXTT8=
EXTT9=
EXTT10=
EXTT11=
EXTT12=
PLAYORDER=
